<?xml version="1.0" encoding="utf-8"?>
<!-- Generator: Adobe Illustrator 27.0.0, SVG Export Plug-In . SVG Version: 6.00 Build 0)  -->
<svg version="1.1" id="Layer_1" xmlns="http://www.w3.org/2000/svg" xmlns:xlink="http://www.w3.org/1999/xlink" x="0px" y="0px"
	 viewBox="0 0 827.2 208.6" style="enable-background:new 0 0 827.2 208.6;" xml:space="preserve">
<style type="text/css">
	.st0{fill:#231F20;stroke:#231F20;stroke-width:3;stroke-miterlimit:10;}
	.st1{fill:#231F20;}
	.st2{fill:url(#SVGID_1_);}
	.st3{fill:url(#SVGID_00000071529295287465380630000002840089482073255346_);}
	.st4{fill:url(#SVGID_00000132080506946250063270000004278447007953500340_);}
	.st5{fill:url(#SVGID_00000044158525937915800750000006823130511067689888_);}
	.st6{fill:url(#SVGID_00000070822031399506006050000018389004721209549216_);}
</style>
<g>
	<path class="st0" d="M263.7,138.1c-0.8-1.1-1.2-2.6-1.1-4.3c0.1-1.8,1.1-3.3,3.1-4.6c1.3-0.8,2.6-1.1,4.1-1
		c1.4,0.1,2.8,0.9,4.2,2.2c2.3,2.3,4.8,4.1,7.3,5.4c2.6,1.3,5.8,1.9,9.6,1.9c1.2-0.1,2.5-0.3,4-0.5c1.4-0.3,2.7-0.9,3.8-1.9
		c1.1-1,1.6-2.5,1.6-4.6c0-1.8-0.6-3.2-1.8-4.2c-1.2-1-2.8-1.9-4.7-2.6c-2-0.7-4.1-1.4-6.5-2c-2.5-0.7-5-1.5-7.6-2.4
		c-2.6-0.9-5-2-7.1-3.4c-2.2-1.4-3.9-3.3-5.3-5.6c-1.4-2.3-2-5.2-2-8.8c0-4,1.1-7.4,3.4-10.2c2.2-2.8,5.1-5,8.7-6.5
		c3.6-1.5,7.3-2.3,11.2-2.3c2.5,0,5.1,0.3,7.8,0.9c2.7,0.6,5.3,1.6,7.8,2.9c2.5,1.3,4.6,3.1,6.2,5.2c0.9,1.2,1.4,2.6,1.6,4.3
		c0.2,1.7-0.6,3.2-2.3,4.6c-1.2,1-2.6,1.4-4.2,1.3c-1.6-0.1-2.9-0.7-4-1.6c-1.4-1.8-3.2-3.2-5.5-4.2c-2.3-1-4.9-1.6-7.9-1.6
		c-1.2,0-2.5,0.1-3.9,0.4c-1.4,0.3-2.6,0.9-3.7,1.8c-1,0.9-1.6,2.4-1.6,4.4c0,1.8,0.6,3.3,1.8,4.4s2.8,2,4.9,2.6
		c2,0.7,4.2,1.3,6.5,2c2.4,0.6,4.8,1.4,7.3,2.3c2.5,0.9,4.8,2,6.8,3.5c2.1,1.4,3.8,3.3,5,5.6c1.3,2.3,1.9,5.2,1.9,8.7
		c0,4.1-1.2,7.6-3.6,10.4c-2.4,2.9-5.4,5.1-9,6.5c-3.6,1.5-7.3,2.2-11,2.2c-4.7,0-9.4-0.8-14.2-2.5
		C270.8,145.2,266.9,142.3,263.7,138.1z"/>
	<path class="st0" d="M359,82.7c6.4,0,11.1,1.5,14.2,4.6c3,3.1,5,7.1,6,11.9l-2-1.1l1-1.9c1-1.8,2.4-3.8,4.4-5.9
		c2-2.1,4.4-3.9,7.3-5.4c2.8-1.5,6-2.2,9.5-2.2c5.8,0,10.1,1.2,13.1,3.7c3,2.5,5.1,5.8,6.2,9.9c1.1,4.1,1.7,8.7,1.7,13.7v30.7
		c0,2.1-0.7,3.8-2,5.2c-1.4,1.4-3.1,2.1-5.2,2.1c-2.1,0-3.8-0.7-5.2-2.1c-1.4-1.4-2-3.1-2-5.2v-30.7c0-2.6-0.3-5-1-7.1
		c-0.6-2.1-1.8-3.8-3.5-5.1c-1.7-1.3-4.1-1.9-7.2-1.9c-3,0-5.6,0.6-7.8,1.9c-2.2,1.3-3.8,3-4.9,5.1c-1.1,2.1-1.6,4.5-1.6,7.1v30.7
		c0,2.1-0.7,3.8-2,5.2c-1.4,1.4-3.1,2.1-5.2,2.1c-2.1,0-3.8-0.7-5.2-2.1c-1.4-1.4-2-3.1-2-5.2v-30.7c0-2.6-0.3-5-1-7.1
		c-0.6-2.1-1.8-3.8-3.5-5.1c-1.7-1.3-4.1-1.9-7.2-1.9c-3,0-5.6,0.6-7.8,1.9c-2.2,1.3-3.8,3-4.9,5.1c-1.1,2.1-1.6,4.5-1.6,7.1v30.7
		c0,2.1-0.7,3.8-2,5.2c-1.4,1.4-3.1,2.1-5.2,2.1c-2.1,0-3.8-0.7-5.2-2.1c-1.4-1.4-2-3.1-2-5.2V91.2c0-2.1,0.7-3.8,2-5.2
		c1.4-1.4,3.1-2.1,5.2-2.1c2.1,0,3.8,0.7,5.2,2.1c1.4,1.4,2,3.1,2,5.2v5.2l-1.8-0.4c0.7-1.4,1.7-2.8,3-4.4c1.3-1.6,2.8-3,4.7-4.4
		c1.8-1.4,3.9-2.5,6.1-3.3C353.9,83.1,356.4,82.7,359,82.7z"/>
	<path class="st0" d="M488.5,82.7c2.1,0,3.8,0.7,5.2,2c1.4,1.4,2,3.1,2,5.3v50.8c0,2.1-0.7,3.8-2,5.2c-1.4,1.4-3.1,2.1-5.2,2.1
		c-2.1,0-3.8-0.7-5.2-2.1c-1.4-1.4-2-3.1-2-5.2v-5.9l2.6,1.1c0,1-0.6,2.3-1.7,3.8c-1.1,1.5-2.6,2.9-4.6,4.4
		c-1.9,1.4-4.2,2.7-6.8,3.7c-2.6,1-5.4,1.5-8.5,1.5c-5.5,0-10.5-1.4-15-4.3c-4.5-2.8-8-6.8-10.6-11.8c-2.6-5-3.9-10.7-3.9-17.2
		c0-6.6,1.3-12.3,3.9-17.3c2.6-5,6.1-8.9,10.5-11.8c4.4-2.8,9.3-4.3,14.6-4.3c3.4,0,6.6,0.5,9.5,1.6c2.9,1,5.4,2.4,7.5,4
		c2.1,1.6,3.8,3.2,4.9,4.9c1.2,1.6,1.7,3,1.7,4.1l-4.3,1.6V90c0-2.1,0.7-3.8,2-5.2C484.7,83.4,486.4,82.7,488.5,82.7z M464.2,136.1
		c3.5,0,6.6-0.9,9.2-2.6c2.6-1.8,4.7-4.2,6.2-7.2c1.5-3,2.2-6.4,2.2-10.2c0-3.8-0.7-7.3-2.2-10.3c-1.5-3-3.5-5.4-6.2-7.2
		c-2.6-1.8-5.7-2.6-9.2-2.6c-3.4,0-6.5,0.9-9.1,2.6c-2.6,1.8-4.7,4.2-6.2,7.2c-1.5,3-2.2,6.5-2.2,10.3c0,3.8,0.7,7.2,2.2,10.2
		c1.5,3,3.5,5.4,6.2,7.2C457.8,135.2,460.8,136.1,464.2,136.1z"/>
	<path class="st0" d="M518.5,148.1c-2.1,0-3.8-0.7-5.2-2.1c-1.4-1.4-2-3.1-2-5.2V91.2c0-2.1,0.7-3.8,2-5.2c1.4-1.4,3.1-2.1,5.2-2.1
		c2.1,0,3.8,0.7,5.2,2.1c1.4,1.4,2,3.1,2,5.2v11.3l-0.8-8c0.9-1.9,2-3.6,3.4-5.1c1.4-1.5,3-2.7,4.7-3.7c1.8-1,3.6-1.7,5.6-2.2
		c2-0.5,4-0.7,6-0.7c2.4,0,4.4,0.7,6.1,2c1.6,1.4,2.5,3,2.5,4.8c0,2.6-0.7,4.5-2,5.7c-1.4,1.2-2.8,1.7-4.4,1.7
		c-1.5,0-2.9-0.3-4.1-0.8c-1.2-0.6-2.7-0.8-4.3-0.8c-1.4,0-2.9,0.3-4.4,1c-1.5,0.7-2.8,1.7-4.1,3.2c-1.2,1.4-2.2,3.2-3,5.3
		c-0.8,2.1-1.1,4.6-1.1,7.5v28.4c0,2.1-0.7,3.8-2,5.2C522.3,147.4,520.6,148.1,518.5,148.1z"/>
	<path class="st0" d="M564.1,85.1h28.4c1.9,0,3.5,0.6,4.8,1.9c1.3,1.3,1.9,2.9,1.9,4.8c0,1.8-0.6,3.4-1.9,4.6
		c-1.3,1.2-2.9,1.9-4.8,1.9h-28.4c-1.9,0-3.5-0.6-4.8-1.9c-1.3-1.3-1.9-2.9-1.9-4.8c0-1.8,0.6-3.4,1.9-4.6
		C560.6,85.7,562.2,85.1,564.1,85.1z M576.9,70.1c2.1,0,3.8,0.7,5.1,2.1c1.3,1.4,2,3.1,2,5.2v53.4c0,1.1,0.2,2,0.7,2.8
		c0.4,0.7,1,1.2,1.8,1.6c0.8,0.3,1.6,0.5,2.5,0.5c1,0,1.8-0.2,2.6-0.5c0.8-0.4,1.7-0.5,2.8-0.5c1.1,0,2.1,0.5,3.1,1.6
		c0.9,1,1.4,2.5,1.4,4.3c0,2.2-1.2,4.1-3.7,5.5c-2.4,1.4-5.1,2.2-7.9,2.2c-1.7,0-3.5-0.1-5.6-0.4c-2-0.3-4-1-5.8-2s-3.3-2.7-4.5-5
		c-1.2-2.2-1.8-5.3-1.8-9.2v-54c0-2.1,0.7-3.8,2.1-5.2C573.1,70.8,574.8,70.1,576.9,70.1z"/>
	<path class="st1" d="M638.8,88.9c0.6,0,1.2,0.2,1.6,0.7c0.4,0.4,0.7,1,0.7,1.6c0,0.6-0.2,1.2-0.7,1.6c-0.4,0.4-1,0.7-1.6,0.7h-28.6
		c-0.6,0-1.1-0.2-1.6-0.7c-0.5-0.5-0.7-1-0.7-1.6c0-0.7,0.2-1.3,0.7-1.7c0.5-0.4,1-0.6,1.6-0.6H638.8z M633.3,59.9
		c1,0,2.1,0.1,3.4,0.2c1.3,0.2,2.5,0.5,3.5,1c1,0.5,1.5,1.2,1.5,2.2c0,0.6-0.2,1.1-0.7,1.6c-0.4,0.5-1,0.8-1.6,0.8
		c-0.8,0-1.8-0.2-2.9-0.7c-1.1-0.5-2.4-0.7-3.7-0.7c-1.6,0-3,0.4-4.3,1.1c-1.2,0.7-2.2,1.8-2.9,3.3c-0.7,1.5-1,3.4-1,5.7v71.4
		c0,0.6-0.2,1.2-0.7,1.7c-0.5,0.5-1,0.7-1.7,0.7c-0.7,0-1.3-0.2-1.7-0.7c-0.4-0.5-0.7-1-0.7-1.7V74.3c0-5,1.3-8.6,4-10.9
		C626.5,61.1,629.6,59.9,633.3,59.9z"/>
	<path class="st1" d="M660.1,145.7c0,0.6-0.2,1.2-0.7,1.7c-0.5,0.5-1,0.7-1.7,0.7c-0.7,0-1.3-0.2-1.7-0.7c-0.4-0.5-0.7-1-0.7-1.7
		v-84c0-0.6,0.2-1.2,0.7-1.7c0.5-0.5,1-0.7,1.7-0.7c0.7,0,1.3,0.2,1.7,0.7c0.4,0.5,0.7,1,0.7,1.7V145.7z"/>
	<path class="st1" d="M736,117.9c0,5.9-1.3,11.3-3.8,16c-2.6,4.8-6.1,8.5-10.5,11.3c-4.4,2.8-9.5,4.1-15.2,4.1
		c-5.6,0-10.6-1.4-15.1-4.1c-4.5-2.8-8-6.5-10.6-11.3c-2.6-4.8-3.9-10.1-3.9-16c0-6,1.3-11.4,3.9-16.1c2.6-4.8,6.1-8.5,10.6-11.3
		c4.5-2.8,9.5-4.1,15.1-4.1c5.7,0,10.7,1.4,15.2,4.1c4.4,2.8,7.9,6.5,10.5,11.3C734.8,106.5,736,111.9,736,117.9z M731.2,117.9
		c0-5.2-1.1-9.8-3.2-13.9c-2.1-4-5-7.2-8.8-9.6c-3.7-2.4-8-3.5-12.8-3.5c-4.7,0-9,1.2-12.7,3.5c-3.8,2.4-6.7,5.6-8.9,9.6
		c-2.2,4-3.2,8.7-3.2,13.9c0,5.1,1.1,9.7,3.2,13.7c2.2,4,5.1,7.2,8.9,9.6c3.8,2.4,8,3.5,12.7,3.5c4.8,0,9.1-1.2,12.8-3.5
		c3.7-2.4,6.6-5.6,8.8-9.6C730.2,127.6,731.2,123,731.2,117.9z"/>
	<path class="st1" d="M824.7,86.1c0.6,0,1.2,0.2,1.7,0.5c0.5,0.4,0.8,0.9,0.8,1.7c0,0.1,0,0.3-0.1,0.5c0,0.3-0.1,0.5-0.2,0.7
		l-18.6,57c-0.2,0.5-0.6,0.9-1,1.1c-0.4,0.3-0.8,0.4-1.3,0.4c-1,0-1.7-0.5-2.3-1.6l-18.5-41.6l1.8,0.6l-16.3,41
		c-0.4,1-1.2,1.6-2.3,1.6c-0.5,0-0.9-0.1-1.4-0.4c-0.4-0.3-0.7-0.7-0.9-1.1l-19.2-57c-0.2-0.5-0.2-0.9-0.2-1.2
		c0-0.7,0.2-1.3,0.7-1.7c0.5-0.4,1.1-0.6,1.8-0.6c0.5,0,0.9,0.1,1.3,0.4c0.4,0.3,0.7,0.7,0.8,1.1l17.9,55.1h-2l17-42.2
		c0.4-1,1.2-1.6,2.3-1.6c0.5,0,0.9,0.1,1.4,0.4c0.4,0.3,0.7,0.7,0.9,1.1l18.4,42.4h-2.4l17.6-55.2C823,86.6,823.7,86.1,824.7,86.1z"
		/>
</g>
<g>
	<linearGradient id="SVGID_1_" gradientUnits="userSpaceOnUse" x1="-37.4026" y1="206.3213" x2="274.9154" y2="91.7187">
		<stop  offset="0" style="stop-color:#22D3EE"/>
		<stop  offset="1" style="stop-color:#164E63"/>
	</linearGradient>
	<path class="st2" d="M111.9,138.6c-0.9-0.1-1.8,0.2-2.7,0.6c-45.3,21.3-68.9-0.5-78.9-0.5c-10.4-1-11.4,13.6-5.5,29.7
		c6.9,18.8,23.4,39.8,45.5,40.3c29-0.7,48.2-36.4,49.1-56.6C119.7,144.3,117.4,138.9,111.9,138.6z"/>
	
		<linearGradient id="SVGID_00000145039241781026159450000013365729459725526952_" gradientUnits="userSpaceOnUse" x1="52.1918" y1="194.9458" x2="319.598" y2="89.6352">
		<stop  offset="0" style="stop-color:#22D3EE"/>
		<stop  offset="1" style="stop-color:#164E63"/>
	</linearGradient>
	<path style="fill:url(#SVGID_00000145039241781026159450000013365729459725526952_);" d="M152.2,111.2c-7.2-2.7-13.1-2.2-15.1,3
		c-0.3,0.9-0.4,1.8-0.3,2.7c6.2,49.7-21.8,65.4-24.9,74.8c-4.2,9.6,9.4,15,26.5,14.4c20.1-0.8,45-9.9,52.4-30.8
		C199.1,147.5,171.1,118.2,152.2,111.2z"/>
	
		<linearGradient id="SVGID_00000171716286603360834590000018137296087577946531_" gradientUnits="userSpaceOnUse" x1="87.0656" y1="122.9329" x2="333.8226" y2="29.4956">
		<stop  offset="0" style="stop-color:#22D3EE"/>
		<stop  offset="1" style="stop-color:#164E63"/>
	</linearGradient>
	<path style="fill:url(#SVGID_00000171716286603360834590000018137296087577946531_);" d="M196.4,50.5C172.5,34,136,51.6,123.5,67.4
		c-4.8,6-6.1,11.8-1.8,15.3c0.7,0.6,1.6,0.9,2.5,1.1c49.2,9.4,55.5,41,63.5,46.8c7.8,6.9,17.2-4.3,21.9-20.8
		C214.9,90.5,213.9,63.9,196.4,50.5z"/>
	
		<linearGradient id="SVGID_00000029046007382453376450000004670046831115925895_" gradientUnits="userSpaceOnUse" x1="1.0862" y1="80.1241" x2="296.8849" y2="-40.1571">
		<stop  offset="0" style="stop-color:#22D3EE"/>
		<stop  offset="1" style="stop-color:#164E63"/>
	</linearGradient>
	<path style="fill:url(#SVGID_00000029046007382453376450000004670046831115925895_);" d="M139.9,12.5C123.2,1.3,97.6-6,79.4,6.6
		c-23,17.6-17.6,57.8-6.4,74.6c4.3,6.4,9.4,9.5,14,6.5c0.8-0.5,1.4-1.2,1.8-2c24.1-43.9,56.1-40.1,64.1-45.9
		C161.9,34.4,154.2,22,139.9,12.5z"/>
	
		<linearGradient id="SVGID_00000033346486565653854400000014100773617625221309_" gradientUnits="userSpaceOnUse" x1="-61.1494" y1="128.5505" x2="182.5103" y2="41.3079">
		<stop  offset="0" style="stop-color:#22D3EE"/>
		<stop  offset="1" style="stop-color:#164E63"/>
	</linearGradient>
	<path style="fill:url(#SVGID_00000033346486565653854400000014100773617625221309_);" d="M80.9,122.2c-0.2-0.9-0.7-1.7-1.4-2.4
		C45.3,83.3,58.8,54.1,55.7,44.6c-2.2-10.2-16.4-6.7-29.9,4C10,61-4.8,83.1,1.5,104.3c9.6,27.3,49.5,34.6,69,29.2
		C77.9,131.4,82.3,127.5,80.9,122.2z"/>
</g>
<g>
</g>
<g>
</g>
<g>
</g>
<g>
</g>
<g>
</g>
<g>
</g>
</svg>
